<?xml version="1.0" encoding="utf-8"?>
<!-- Generator: Adobe Illustrator 26.0.3, SVG Export Plug-In . SVG Version: 6.00 Build 0)  -->
<svg version="1.1" id="Layer_1" xmlns="http://www.w3.org/2000/svg" xmlns:xlink="http://www.w3.org/1999/xlink" x="0px" y="0px"
	 viewBox="0 0 1380.4 1157.1" style="enable-background:new 0 0 1380.4 1157.1;" xml:space="preserve">
<style type="text/css">
	.st0{fill:#FFFFFF;}
	.st1{fill:#00AA13;}
</style>
<g>
	<g>
		<g>
			<path class="st0" d="M562.1,765.2c-46.3,0-81.3,37.4-81.3,86.9c0,50.2,35.9,86.6,85.3,86.6c26.5,0,48.5-9.5,65.4-28.1
				c0.8-0.9,1.2-2,1.1-3.2c-0.1-1.2-0.6-2.4-1.5-3.2l-16.5-14.6c-1.7-1.5-4.4-1.5-6.1,0.1c-13.1,12-25.6,17-41.7,17
				c-24.2,0-45.6-18.7-47-40.9h116.6c2.4,0,4.3-1.8,4.5-4.2c0.2-2,0.3-4.3,0.3-6.6c0-24.7-7-47-19.7-62.9
				C607.5,774.5,586.9,765.2,562.1,765.2z M603.2,837.6h-83.8c0.3-23,18.4-40.3,42.3-40.3C587.2,797.3,602.9,818.1,603.2,837.6z"/>
			<path class="st0" d="M741.9,837.5l-3.2-1c-18-5.8-33.6-10.8-33.6-21.6v-0.6c0-9.8,8.9-16.1,22.6-16.1c12.3,0,27.5,4.8,42.8,13.5
				c1.1,0.6,2.3,0.8,3.5,0.4c1.2-0.3,2.1-1.1,2.7-2.1l11.2-20c1.2-2.2,0.5-4.8-1.5-6.1c-17.5-10.7-38.5-16.8-57.8-16.8
				c-35,0-59.4,20.9-59.4,50.9v0.6c0,31.7,26.8,41.9,52,49l3.9,1.2c17.5,5.3,32.7,9.9,32.7,21.5v0.6c0,10.8-9.4,17.3-25.1,17.3
				c-16.2,0-34.1-6.3-50.4-17.8c-1-0.7-2.3-1-3.5-0.8c-1.2,0.2-2.2,0.9-2.9,1.9l-12.5,19c-1.3,2-0.9,4.8,1.1,6.2
				c19.5,14.3,44.1,22.5,67.4,22.5c38.2,0,61.9-20.1,61.9-52.5v-0.6C793.6,857.5,768.8,845.8,741.9,837.5z"/>
			<path class="st0" d="M951.1,888.3c-1.8-1.7-4.6-1.7-6.4,0C932.1,900.3,919.5,906,905,906c-27.9,0-48.9-22.8-48.9-53
				c0-29.4,20.7-52.4,47-52.4c15.3,0,27.1,5.2,39.6,17.5c0.9,0.9,2,1.3,3.2,1.3c0,0,0.1,0,0.1,0c1.2,0,2.3-0.5,3.2-1.4l18.1-19.5
				c1.7-1.8,1.6-4.5,0-6.2c-17.1-17.7-37.4-25.9-63.8-25.9c-48.4,0-86.3,38.3-86.3,87.2c0,48.4,37.8,86.3,86,86.3
				c27,0,46.6-8.5,65.3-28.3c1.7-1.8,1.6-4.6-0.2-6.3L951.1,888.3z"/>
			<path class="st0" d="M1072.7,765.2c-49.8,0-88.8,38.3-88.8,87.2c0,48.4,38.7,86.3,88.2,86.3c49.9,0,89.1-38.2,89.1-86.9
				c0-23.4-8.9-45.1-25.1-61.2C1119.6,774.2,1097.1,765.2,1072.7,765.2z M1122.2,852.5c0,30.3-20.8,52.4-49.6,52.4
				c-28.4,0-49.9-22.8-49.9-53c0-30.3,20.7-52.4,49.2-52.4C1100.7,799.5,1122.2,822.2,1122.2,852.5z"/>
			<path class="st0" d="M462.4,769.7H433c-2,0-3.7,1.3-4.3,3.2l-32.5,109.3l-49.3-105.7c-0.7-1.4-2.1-2.4-3.7-2.4l0,0
				c-1.6,0-3,0.9-3.7,2.4l-48.8,105.7l-31.9-109.3c-0.6-1.9-2.4-3.2-4.3-3.2H224c-1.5,0-2.8,0.7-3.7,1.9s-1.1,2.7-0.7,4.1L270.6,934
				c0.6,1.9,2.4,3.2,4.3,3.2h28.2c1.8,0,3.4-1.1,4.2-2.7l35.7-82.8l35.4,82.8c0.7,1.7,2.4,2.7,4.2,2.7h28.2c2,0,3.7-1.3,4.3-3.2
				l51.5-158.4c0.5-1.4,0.2-2.9-0.6-4.1C465.2,770.4,463.9,769.7,462.4,769.7z"/>
		</g>
		<g>
			<path class="st1" d="M938.2,652.9l221.1-415.8c4.1-7.8-1.5-17.2-10.3-17.2H934.2c-6.2,0-11.8,3.4-14.7,8.9L804.8,444.3
				l110.9,208.6c2.2,4.2,6.5,6.8,11.2,6.8h0C931.7,659.6,936,657,938.2,652.9z"/>
			<path class="st1" d="M221.3,237.1l211.1,397.1l115.3-216.9L447.5,228.7c-2.9-5.4-8.6-8.9-14.7-8.9H231.6
				C222.8,219.9,217.2,229.3,221.3,237.1z"/>
			<path class="st1" d="M446,659.6h234.3c6.2,0,11.8-3.4,14.7-8.9l109.8-206.5L693.9,235.7c-2.2-4.1-6.5-6.8-11.2-6.8l0,0
				c-4.7,0-9,2.6-11.2,6.8L446,659.6z"/>
		</g>
	</g>
</g>
</svg>
